<svg width="18" height="24" viewBox="0 0 18 24" fill="none" xmlns="http://www.w3.org/2000/svg">
<g clip-path="url(#clip0)">
<path d="M4.55235 16.9976C4.14501 16.5902 4.35735 16.7051 3.37485 16.4421C2.92907 16.3226 2.53719 16.0929 2.18282 15.8177L0.0560985 21.0321C-0.149683 21.537 0.234692 22.0854 0.77938 22.0648L3.24922 21.9706L4.94798 23.7649C5.32298 24.1606 5.9811 24.0373 6.18688 23.5324L8.62673 17.5502C8.1186 17.8334 7.5547 17.9993 6.97157 17.9993C6.05751 17.9993 5.19876 17.6435 4.55235 16.9976ZM17.9436 21.0321L15.8169 15.8177C15.4625 16.0934 15.0706 16.3226 14.6249 16.4421C13.6372 16.7065 13.8538 16.5912 13.4474 16.9976C12.8009 17.6435 11.9417 17.9993 11.0277 17.9993C10.4445 17.9993 9.88063 17.8329 9.37251 17.5502L11.8124 23.5324C12.0181 24.0373 12.6767 24.1606 13.0513 23.7649L14.7505 21.9706L17.2203 22.0648C17.765 22.0854 18.1494 21.5365 17.9436 21.0321ZM12.328 15.9368C13.0442 15.2079 13.1263 15.2707 14.1463 14.9927C14.7974 14.8151 15.3064 14.2971 15.4808 13.6343C15.8314 12.3031 15.7405 12.4638 16.6972 11.4898C17.1739 11.0046 17.36 10.2973 17.1856 9.63447C16.8355 8.30415 16.835 8.48978 17.1856 7.15806C17.36 6.49525 17.1739 5.7879 16.6972 5.30275C15.7405 4.32868 15.8314 4.489 15.4808 3.15822C15.3064 2.4954 14.7974 1.97743 14.1463 1.79978C12.8394 1.44306 12.9969 1.53634 12.0392 0.56181C11.5625 0.0766536 10.8674 -0.11319 10.2163 0.0644661C8.90985 0.420716 9.0922 0.421185 7.78345 0.0644661C7.13235 -0.11319 6.4372 0.0761849 5.96048 0.56181C5.00376 1.53587 5.16126 1.44306 3.85391 1.79978C3.20282 1.97743 2.69376 2.4954 2.51938 3.15822C2.16922 4.489 2.25969 4.32868 1.30297 5.30275C0.826255 5.7879 0.639692 6.49525 0.814536 7.15806C1.16469 8.48743 1.16516 8.30181 0.814536 9.634C0.640161 10.2968 0.826255 11.0042 1.30297 11.4898C2.25969 12.4638 2.16876 12.3031 2.51938 13.6343C2.69376 14.2971 3.20282 14.8151 3.85391 14.9927C4.90298 15.2787 4.98126 15.2337 5.67173 15.9368C6.29188 16.5682 7.25798 16.6812 8.00329 16.2096C8.30133 16.0204 8.64706 15.9199 9.00009 15.9199C9.35311 15.9199 9.69885 16.0204 9.99688 16.2096C10.7417 16.6812 11.7078 16.5682 12.328 15.9368ZM4.57766 8.24743C4.57766 5.76165 6.55766 3.7465 8.99985 3.7465C11.442 3.7465 13.422 5.76165 13.422 8.24743C13.422 10.7332 11.442 12.7484 8.99985 12.7484C6.55766 12.7484 4.57766 10.7332 4.57766 8.24743Z" fill="#E07A5F"/>
</g>
<defs>
<clipPath id="clip0">
<rect width="18" height="24" fill="white"/>
</clipPath>
</defs>
</svg>
