<svg width="19" height="24" viewBox="0 0 19 24" fill="none" xmlns="http://www.w3.org/2000/svg">
<path d="M1.71432 0.85715H5.7429C5.83397 0.85715 5.88218 0.958936 5.82861 1.02858C5.67325 1.23751 5.54468 1.46251 5.45361 1.71429C5.43754 1.75715 5.40004 1.78394 5.35182 1.78394H5.32504C4.32325 1.78394 3.88397 2.58215 3.85182 3.57858V4.39286C3.85182 4.45179 3.80361 4.50001 3.74468 4.50001H2.65718C2.18575 4.50001 1.80004 4.88572 1.80004 5.35715V21.2893C1.80004 21.7607 2.18575 22.1464 2.65718 22.1464H16.2108C16.6822 22.1464 17.0679 21.7607 17.0679 21.2893V5.35715C17.0679 4.88572 16.6822 4.50001 16.2108 4.50001H15.0697C15.0108 4.50001 14.9625 4.45179 14.9625 4.39286V3.92143C14.9625 2.89822 14.6625 1.95536 13.484 1.95536H13.4679C13.4197 1.95536 13.3715 1.92322 13.3661 1.86965C13.2858 1.50001 13.1465 1.24286 12.9804 1.02322C12.9268 0.953578 12.975 0.851793 13.0661 0.851793L17.1536 0.846436C18.0911 0.851793 18.8572 1.61251 18.8572 2.55536V21C18.8572 23.2339 18.0911 24 17.1429 24H1.68754C0.755396 24 3.86238e-05 23.2446 3.86238e-05 22.3125V2.57144C3.86238e-05 1.62322 0.76611 0.85715 1.71432 0.85715Z" fill="#F4F1DE"/>
<path d="M15.6161 6.85714V19.7143C15.6161 20.1857 15.2304 20.5714 14.7589 20.5714H4.04466C3.57323 20.5714 3.18752 20.1857 3.18752 19.7143V6.85714C3.18752 6.38571 3.57323 6 4.04466 6H14.7589C15.2304 6 15.6161 6.38571 15.6161 6.85714ZM5.91966 2.625H6.83038C6.83038 2.325 6.88395 2.03571 6.97502 1.76786C7.08752 1.44643 7.25895 1.15714 7.47859 0.910714C7.95002 0.380357 8.63573 0 9.4018 0C10.1679 0 10.8536 0.380357 11.325 0.910714C11.5447 1.15714 11.7161 1.44643 11.8286 1.76786C11.9197 2.03571 11.9732 2.325 11.9732 2.625H12.75C13.2643 2.625 13.6875 3.04821 13.6875 3.5625V4.39286C13.6875 4.45178 13.6393 4.5 13.5804 4.5H5.22323C5.1643 4.5 5.11609 4.45178 5.11609 4.39286V3.42857C5.11609 2.98393 5.47502 2.625 5.91966 2.625ZM9.2893 3.45536C9.8518 3.525 10.3232 3.05357 10.2482 2.49643C10.2 2.11607 9.8893 1.80536 9.50895 1.75714C8.94645 1.6875 8.47502 2.15893 8.55002 2.71607C8.59823 3.10178 8.90895 3.40714 9.2893 3.45536V3.45536Z" fill="#F4F1DE"/>
</svg>
