<svg width="24" height="24" viewBox="0 0 24 24" fill="none" xmlns="http://www.w3.org/2000/svg">
<path d="M6.40313 6.50489C5.93234 6.63796 5.50124 6.88414 5.14739 7.22197C4.79354 7.55981 4.52768 7.97905 4.37297 8.44317L0 21.5616L0.688594 22.2502L7.725 15.2138C7.58484 14.9204 7.5 14.596 7.5 14.2491C7.5 13.0065 8.50734 11.9991 9.75 11.9991C10.9927 11.9991 12 13.0065 12 14.2491C12 15.4918 10.9927 16.4991 9.75 16.4991C9.40312 16.4991 9.07875 16.4143 8.78531 16.2741L1.74891 23.3105L2.4375 23.9991L15.5559 19.6261C16.0201 19.4714 16.4393 19.2056 16.7771 18.8517C17.115 18.4979 17.3612 18.0668 17.4942 17.596L19.5 10.4991L13.5 4.49911L6.40313 6.50489ZM23.3409 3.47583L20.5233 0.658173C19.6444 -0.220734 18.2189 -0.220734 17.34 0.658173L14.6892 3.30895L20.6902 9.30989L23.3409 6.65911C24.2198 5.7802 24.2198 4.3552 23.3409 3.47583Z" fill="#F4F1DE"/>
</svg>
