<svg width="24" height="24" viewBox="0 0 24 24" fill="none" xmlns="http://www.w3.org/2000/svg">
<path d="M12 0C5.37115 0 0 5.37115 0 12C0 18.6288 5.37115 24 12 24C18.6288 24 24 18.6288 24 12C24 5.37115 18.6288 0 12 0ZM7.44808 17.1288C7.29231 17.3942 7.01539 17.5385 6.72692 17.5385C6.58269 17.5385 6.43846 17.5038 6.30577 17.4231C5.90769 17.1923 5.775 16.6846 6.00577 16.2865L6.825 14.925C6.91154 14.7808 7.06154 14.6942 7.22885 14.6942H7.35C7.94423 14.6942 8.35962 15.0519 8.48077 15.3981L7.44808 17.1288V17.1288ZM14.3827 14.4519L9.01731 14.4577H5.45192C4.97885 14.4577 4.59808 14.0654 4.62115 13.5923C4.63846 13.1423 5.03077 12.8019 5.48077 12.8019H8.06538L11.1288 7.58654L10.1365 5.89615C9.91154 5.50962 10.0096 5.00192 10.3904 4.75962C10.7942 4.5 11.325 4.63269 11.5615 5.03654L12.0923 5.94231H12.0981L12.6288 5.03654C12.8654 4.63269 13.4019 4.5 13.8 4.75962C14.1808 5.00192 14.2788 5.50962 14.0538 5.89615L13.0615 7.58654L12.0981 9.23077L10.0038 12.8019V12.8077H13.0904C13.4769 12.8077 13.9615 13.0154 14.1577 13.35L14.175 13.3846C14.3481 13.6788 14.4462 13.8808 14.4462 14.175C14.4404 14.3365 14.3827 14.4519 14.3827 14.4519V14.4519ZM18.5481 14.4577H17.0942V14.4635L18.1558 16.2692C18.3865 16.6615 18.2769 17.1808 17.8788 17.4231C17.7462 17.5038 17.5962 17.5442 17.4462 17.5442C17.1577 17.5442 16.8808 17.3942 16.725 17.1346L15.1558 14.4635L14.1808 12.8019L12.9231 10.65C12.5538 10.0212 12.5365 9.23654 12.8885 8.61346C13.1365 8.175 13.3269 8.05962 13.3269 8.05962L16.125 12.7962H18.5308C18.9808 12.7962 19.3673 13.1423 19.3904 13.5865C19.4077 14.0654 19.0269 14.4577 18.5481 14.4577V14.4577Z" fill="#F4F1DE"/>
</svg>
